<svg width="512" height="512" viewBox="0 0 512 512" fill="none" xmlns="http://www.w3.org/2000/svg">
  <defs>
    <linearGradient id="grad1" x1="0%" y1="0%" x2="100%" y2="100%">
      <stop offset="0%" style="stop-color:#00f2fe;stop-opacity:1" />
      <stop offset="100%" style="stop-color:#4facfe;stop-opacity:1" />
    </linearGradient>
    <filter id="glow" x="-20%" y="-20%" width="140%" height="140%">
      <feGaussianBlur stdDeviation="15" result="blur" />
      <feComposite in="SourceGraphic" in2="blur" operator="over" />
    </filter>
  </defs>
  
  <rect width="512" height="512" rx="128" fill="#030303" />

  <g filter="url(#glow)">
    <path d="M120 120L256 256M392 120L256 256M256 256L120 392M256 256L392 392" stroke="url(#grad1)" stroke-width="60" stroke-linecap="round"/>
    
    <path d="M350 150C380 180 400 220 400 256C400 292 380 332 350 362" stroke="url(#grad1)" stroke-width="20" stroke-linecap="round" fill="none" opacity="0.6"/>
    <path d="M162 150C132 180 112 220 112 256C112 292 132 332 162 362" stroke="url(#grad1)" stroke-width="20" stroke-linecap="round" fill="none" opacity="0.6"/>
  </g>
  
  <path d="M256 160L352 256L256 352L160 256L256 160Z" fill="url(#grad1)" opacity="0.2" />
</svg>
